<svg version="1.2" xmlns="http://www.w3.org/2000/svg" viewBox="0 0 24 24" width="24" height="24">
	<title>safari-pinned-tab-svg</title>
	<style>
		.s0 { fill: #000000 } 
	</style>
	<g id="Layer">
		<path id="Layer" fill-rule="evenodd" class="s0" d="m0 0h24v24h-24zm8.9 6.3h-1.3v4.8c-0.1 4.8-0.1 4.9-0.3 5.3-0.2 0.5-0.6 0.8-1.2 0.8h-0.5v1.1h0.5c1.1 0 2-0.5 2.3-1.3 0.4-0.7 0.5-1.7 0.5-6.5zm3.7 0h-1.2v9.5h1.2v-4.6l2.3 2.3 2.2 2.3h1.8l-5.1-5.1 2-1.8c1.1-1 2.1-2 2.3-2.2l0.4-0.3h-1.7l-2 1.9-2.1 2v-2z"/>
	</g>
</svg>