<?xml version="1.0" standalone="no"?>
<!DOCTYPE svg PUBLIC "-//W3C//DTD SVG 20010904//EN"
 "http://www.w3.org/TR/2001/REC-SVG-20010904/DTD/svg10.dtd">
<svg version="1.0" xmlns="http://www.w3.org/2000/svg"
 width="260.000000pt" height="260.000000pt" viewBox="0 0 260.000000 260.000000"
 preserveAspectRatio="xMidYMid meet">
<metadata>
Created by potrace 1.14, written by Peter Selinger 2001-2017
</metadata>
<g transform="translate(0.000000,260.000000) scale(0.100000,-0.100000)"
fill="#000000" stroke="none">
<path d="M0 1300 l0 -1300 1300 0 1300 0 0 1300 0 1300 -1300 0 -1300 0 0
-1300z m960 158 c0 -519 -7 -622 -46 -704 -40 -85 -132 -134 -251 -134 l-53 0
0 60 0 60 46 0 c69 0 113 25 138 79 20 45 21 61 24 574 l3 527 69 0 70 0 0
-462z m412 250 l3 -212 225 212 225 211 90 0 90 0 -40 -36 c-22 -21 -136 -127
-253 -237 l-213 -200 273 -273 273 -273 -97 0 -96 0 -241 248 -241 247 0 -247
0 -248 -70 0 -70 0 0 510 0 510 70 0 70 0 2 -212z"/>
</g>
</svg>
